# xmcd
#
# Track frame offsets:
#	150
#	25640
#	45736
#	64224
#	96369
#	131169
#	167769
#	187800
#	208370
#	251055
#
# Disc length: 3864 seconds
#
# Revision: 0
# Processed by: cddbd v1.5.2PL0 Copyright (c) Steve Scherf et al.
# Submitted via: audiograbber 1.83.01
#
DISCID=900f160a
DTITLE=The Rolling Stones - From The Vault - Live At The Tokyo Dome [1990] [CD 
DTITLE=2)
DYEAR=2015
DGENRE=Rock
TTITLE0=Can't Be Seen [live]
TTITLE1=Happy [live]
TTITLE2=Paint It Black [live]
TTITLE3=2000 Light Years From Home [live]
TTITLE4=Sympathy For The Devil [live]
TTITLE5=Gimme Shelter [live]
TTITLE6=It's Only Rock 'n Roll [live]
TTITLE7=Brown Sugar [live]
TTITLE8=(I Can't Get No) Satisfaction [live]
TTITLE9=Jumpin' Jack Flash [live]
EXTD=
EXTT0=
EXTT1=
EXTT2=
EXTT3=
EXTT4=
EXTT5=
EXTT6=
EXTT7=
EXTT8=
EXTT9=
PLAYORDER=
